# xmcd
#
# Track frame offsets:
#	150
#	15237
#	29593
#	42890
#	59195
#	76248
#	92836
#	107863
#	123376
#	137657
#	153024
#	176065
#	194422
#	209067
#	226376
#	239192
#	258144
#	273891
#	296060
#	307931
#	323536
#	341793
#
# Disc length: 4590 seconds
#
# Revision: 1
# Processed by: cddbd v1.4PL0 Copyright (c) Steve Scherf et al.
# Submitted via: audiograbber 1.80
#
DISCID=4011ec16
DTITLE=CDX - Volume 317 May 2003
DYEAR=1900
DGENRE=
TTITLE0=Bellamy Brothers - Bubba
TTITLE1=Rachel Proctor - Days Like This
TTITLE2=Jamie O'Neal - Every Little Thing
TTITLE3=Deana Carter - I'm Just A Girl
TTITLE4=Lisa Marie Presley - Lights Out
TTITLE5=Patty Loveless - Lovin' All Night
TTITLE6=Steve Azar - One Good Reason Why
TTITLE7=Joe Nichols - She Only Smokes When She Drinks
TTITLE8=Faith Hill - You're Still Here (Single Version)
TTITLE9=Mickey Gilley - Invitation Only
TTITLE10=Lynyrd Skynyrd - Red, White And Blue
TTITLE11=T. Graham Brown - Which Way To Pray
TTITLE12=Izak and West - Here In This World (Aqui En Este Mundo)
TTITLE13=Colte Bradley - In Their Eyes
TTITLE14=Leland Martin - Stone Cold Fingers
TTITLE15=Michael Chain - Too Rockin' To Be Country (Too Country To Be Rock and Ro
TTITLE15=ll)
TTITLE16=Lane Brody and Collin Raye - All The Unsung Heroes
TTITLE17=Hank Williams, Jr. - America Will Survive
TTITLE18=Brent Burns - Forget The French
TTITLE19=Juice Newton - Keepers Of The Peace
TTITLE20=Brent Bingham - One Nation Under God
TTITLE21=Hometown News - PSA - Support The Troops
EXTD=
EXTT0=
EXTT1=
EXTT2=
EXTT3=
EXTT4=
EXTT5=
EXTT6=
EXTT7=
EXTT8=
EXTT9=
EXTT10=
EXTT11=
EXTT12=
EXTT13=
EXTT14=
EXTT15=
EXTT16=
EXTT17=
EXTT18=
EXTT19=
EXTT20=
EXTT21=
PLAYORDER=
